<svg xmlns="http://www.w3.org/2000/svg" width="761.5" height="306" fill="none" stroke-linecap="square" stroke-miterlimit="10">
    <clipPath id="a">
        <path d="M0 0h800v600H0Z"/>
    </clipPath>
    <g clip-path="url(#a)" transform="translate(-15 -15)">
        <path fill="#c9daf8" fill-rule="evenodd" d="M16 16h96v32H16Z"/>
        <path stroke="#3c78d8" stroke-linecap="butt" stroke-linejoin="round" stroke-width="2" d="M16 16h96v32H16Z"/>
        <path fill="#3c78d8" d="M42.927 38.92V27.139h-4.406V25.56h10.578v1.578h-4.406V38.92Zm14.412-3.11 1.687.204q-.406 1.484-1.484 2.312-1.078.813-2.766.813-2.125 0-3.375-1.297-1.234-1.313-1.234-3.672 0-2.453 1.25-3.797 1.266-1.344 3.266-1.344 1.937 0 3.156 1.329 1.234 1.312 1.234 3.703v.437h-7.219q.094 1.594.907 2.453.812.844 2.015.844.907 0 1.547-.469.64-.484 1.016-1.515zm-5.39-2.656h5.405q-.109-1.218-.625-1.828-.78-.953-2.03-.953-1.126 0-1.907.766-.766.75-.844 2.015zm1.765-5.109 1.219-2.547h2.156l-2.016 2.547Zm7.329 10.875V25.56h1.64v13.36Zm10.504-1.188q-.922.766-1.766 1.094-.828.313-1.797.313-1.593 0-2.453-.782-.86-.78-.86-1.984 0-.719.329-1.297.328-.593.844-.937.531-.36 1.187-.547.469-.125 1.453-.25 1.985-.234 2.922-.563.016-.343.016-.422 0-1-.469-1.421-.625-.547-1.875-.547-1.156 0-1.703.406-.547.406-.812 1.422l-1.61-.219q.219-1.015.719-1.64.5-.641 1.453-.985.953-.344 2.188-.344 1.25 0 2.015.297.781.282 1.14.735.376.437.516 1.109.079.422.079 1.516v2.187q0 2.281.109 2.89.11.595.406 1.157h-1.703q-.266-.516-.328-1.188zm-.14-3.671q-.891.375-2.673.625-1.015.14-1.437.328-.422.187-.656.531-.22.344-.22.781 0 .657.5 1.094.5.438 1.454.438.937 0 1.672-.407.75-.422 1.094-1.14.265-.563.265-1.641zm4.203 4.859v-9.672h1.469v1.36q.453-.72 1.203-1.141.766-.438 1.719-.438 1.078 0 1.765.454.688.437.97 1.234 1.155-1.688 2.983-1.688 1.454 0 2.22.797.78.797.78 2.453v6.641h-1.64v-6.094q0-.984-.156-1.406-.157-.438-.579-.703-.421-.266-.984-.266-1.016 0-1.687.688Q83 31.81 83 33.295v5.625h-1.64v-6.281q0-1.094-.407-1.64-.406-.548-1.313-.548-.687 0-1.28.36-.595.359-.86 1.062-.25.703-.25 2.031v5.016Z"/>
        <path d="M128 80h96v48h-96z"/>
        <path stroke="#3c78d8" stroke-linecap="butt" stroke-linejoin="round" stroke-width="2" d="M128 80h96v48h-96z"/>
        <path fill="#3c78d8" d="M159.587 89.596h1.391v6.047q0 1.593-.36 2.53-.359.923-1.296 1.5-.938.579-2.453.579-1.47 0-2.407-.5-.937-.516-1.343-1.469-.391-.969-.391-2.64v-6.047h1.39v6.047q0 1.375.25 2.015.25.64.86 1 .625.344 1.531.344 1.531 0 2.172-.688.656-.703.656-2.671zm-3.609-.657.953-2h1.688l-1.579 2zm7.116 11.141V89.596h1.28v10.484zm6.1-1.156.187 1.14q-.547.11-.984.11-.688 0-1.079-.219-.39-.219-.546-.578-.157-.36-.157-1.516v-4.375h-.953v-1h.953v-1.89l1.282-.766v2.656h1.296v1h-1.296v4.438q0 .547.062.719.078.156.219.25.156.078.453.078.203 0 .562-.047zm1.259-7.86v-1.468h1.297v1.468zm0 9.016v-7.594h1.297v7.594zm3.256 0v-7.594h1.156v1.063q.344-.563.938-.89.61-.345 1.36-.345.843 0 1.374.344.547.344.766.985.906-1.329 2.36-1.329 1.124 0 1.734.625.609.625.609 1.922v5.219h-1.281v-4.781q0-.781-.125-1.11-.125-.343-.453-.546-.329-.22-.782-.22-.797 0-1.328.532-.531.531-.531 1.703v4.422h-1.281v-4.937q0-.86-.313-1.282-.312-.437-1.031-.437-.547 0-1.016.297-.453.28-.672.828-.203.547-.203 1.594v3.937zm17.162-.937q-.719.609-1.375.859t-1.422.25q-1.25 0-1.922-.61-.672-.609-.672-1.562 0-.562.25-1.016.25-.468.657-.75.421-.28.937-.421.375-.094 1.14-.188 1.563-.187 2.298-.453.015-.266.015-.328 0-.797-.375-1.11-.484-.437-1.453-.437-.922 0-1.36.328-.421.313-.624 1.11l-1.266-.172q.172-.797.563-1.297.39-.5 1.14-.766.75-.266 1.719-.266.984 0 1.594.235.609.219.89.562.282.344.407.875.062.328.062 1.188v1.719q0 1.796.078 2.28.078.47.328.907h-1.344q-.203-.406-.265-.937zm-.11-2.875q-.703.28-2.093.484-.797.11-1.125.266-.328.14-.516.421-.172.266-.172.594 0 .516.39.86.392.343 1.142.343.734 0 1.312-.312.594-.328.86-.89.203-.438.203-1.298zm2.792 1.546 1.266-.203q.11.766.594 1.172.5.406 1.375.406.89 0 1.312-.359.438-.36.438-.844 0-.437-.375-.687-.266-.172-1.313-.438-1.422-.36-1.969-.61-.546-.265-.828-.733-.281-.47-.281-1.016 0-.516.219-.938.234-.437.64-.734.297-.219.813-.36.531-.156 1.125-.156.89 0 1.562.266.672.25 1 .688.329.437.438 1.171l-1.25.172q-.094-.578-.5-.906-.406-.344-1.156-.344-.891 0-1.282.297-.375.297-.375.688 0 .25.157.453.156.203.5.344.187.078 1.14.328 1.36.359 1.89.593.548.235.86.688.313.437.313 1.094 0 .64-.375 1.218-.375.563-1.094.875-.703.313-1.594.313-1.484 0-2.265-.61-.766-.624-.985-1.828zm-42.507 20.266v-10.484h1.437l5.5 8.234v-8.234h1.328v10.484h-1.421l-5.5-8.25v8.25zm9.96-3.797q0-2.11 1.171-3.125.984-.844 2.39-.844 1.579 0 2.563 1.032 1 1.015 1 2.828 0 1.468-.437 2.312-.438.828-1.282 1.297-.843.469-1.843.469-1.594 0-2.578-1.016-.985-1.031-.985-2.953zm1.327 0q0 1.453.625 2.188.64.718 1.61.718.968 0 1.593-.718.641-.735.641-2.235 0-1.406-.64-2.125-.641-.734-1.594-.734-.97 0-1.61.719-.625.718-.625 2.187zm10.12 2.64.188 1.141q-.547.11-.985.11-.687 0-1.078-.219-.39-.219-.547-.578-.156-.36-.156-1.516v-4.375h-.953v-1h.953v-1.89l1.281-.766v2.656h1.297v1h-1.297v4.438q0 .547.063.718.078.157.219.25.156.079.453.079.203 0 .562-.047zm1.26-7.859v-1.468h1.296v1.468zm0 9.016v-7.594h1.296v7.594Zm8.209-2.781 1.265.156q-.203 1.313-1.062 2.063-.844.734-2.094.734-1.562 0-2.515-1.016-.938-1.031-.938-2.922 0-1.234.406-2.156.407-.922 1.235-1.375.844-.469 1.812-.469 1.25 0 2.031.625.782.625 1.016 1.766l-1.266.203q-.171-.766-.625-1.156-.453-.39-1.093-.39-.985 0-1.594.702-.61.704-.61 2.204 0 1.53.579 2.234.594.687 1.547.687.75 0 1.265-.453.516-.469.64-1.437zm2.375-6.235v-1.468h1.297v1.468zm0 9.016v-7.594h1.297v7.594Zm8.21-.938q-.72.61-1.376.86-.656.25-1.422.25-1.25 0-1.922-.61-.671-.609-.671-1.562 0-.563.25-1.016.25-.468.656-.75.422-.28.937-.421.375-.094 1.14-.188 1.563-.188 2.298-.453.015-.266.015-.328 0-.797-.375-1.11-.484-.437-1.453-.437-.922 0-1.36.328-.421.313-.624 1.11l-1.266-.173q.172-.796.563-1.296.39-.5 1.14-.766.75-.266 1.72-.266.984 0 1.593.235.61.218.89.562.282.344.407.875.062.328.062 1.188v1.718q0 1.797.078 2.282.078.468.328.906h-1.343q-.203-.406-.266-.938zm-.11-2.874q-.703.28-2.094.484-.797.11-1.125.266-.328.14-.516.421-.171.266-.171.594 0 .516.39.86.39.343 1.14.343.735 0 1.313-.312.594-.328.86-.89.203-.438.203-1.298zm2.792 1.546 1.265-.203q.11.766.594 1.172.5.406 1.375.406.89 0 1.312-.359.438-.36.438-.844 0-.437-.375-.687-.266-.172-1.313-.438-1.421-.36-1.968-.61-.547-.265-.828-.734-.282-.468-.282-1.015 0-.516.219-.938.234-.437.64-.734.298-.219.813-.36.531-.156 1.125-.156.89 0 1.563.266.672.25 1 .688.328.437.437 1.171l-1.25.172q-.094-.578-.5-.906-.406-.344-1.156-.344-.89 0-1.281.297-.375.297-.375.688 0 .25.156.453t.5.343q.187.079 1.14.329 1.36.359 1.891.593.547.235.86.688.312.437.312 1.094 0 .64-.375 1.218-.375.563-1.094.875-.703.313-1.593.313-1.485 0-2.266-.61-.766-.624-.984-1.828z"/>
        <path d="M128 144h96v48h-96z"/>
        <path stroke="#3c78d8" stroke-linecap="butt" stroke-linejoin="round" stroke-width="2" d="M128 144h96v48h-96z"/>
        <path fill="#3c78d8" d="M153.094 173.08v-10.484h3.969q1.047 0 1.593.093.766.125 1.282.485.53.36.843 1.015.329.657.329 1.438 0 1.328-.86 2.265-.844.922-3.078.922h-2.687v4.266Zm1.39-5.5h2.72q1.343 0 1.906-.5.562-.5.562-1.406 0-.672-.328-1.14-.328-.47-.875-.61-.36-.094-1.297-.094h-2.687zm7.745 1.703q0-2.11 1.172-3.125.984-.844 2.39-.844 1.579 0 2.563 1.032 1 1.015 1 2.828 0 1.469-.438 2.312-.437.828-1.28 1.297-.845.469-1.845.469-1.593 0-2.578-1.016-.984-1.031-.984-2.953zm1.328 0q0 1.453.625 2.188.64.718 1.61.718.968 0 1.593-.718.64-.735.64-2.235 0-1.406-.64-2.125-.64-.734-1.594-.734-.968 0-1.609.719-.625.718-.625 2.187zm7.276 3.797v-10.484h1.281v10.484Zm3.74 0v-7.594h1.282v7.594Zm-.062-8.547.953-2h1.688l-1.578 2zm6.494 7.39.187 1.141q-.546.11-.984.11-.687 0-1.078-.219-.39-.219-.547-.578-.156-.36-.156-1.516v-4.375h-.953v-1h.953v-1.89l1.281-.766v2.656h1.297v1h-1.297v4.438q0 .547.063.719.078.156.218.25.157.078.453.078.204 0 .563-.047zm1.26-7.859v-1.468h1.296v1.468zm0 9.016v-7.594h1.296v7.594Zm8.209-2.781 1.265.156q-.203 1.313-1.062 2.063-.844.734-2.094.734-1.562 0-2.516-1.016-.937-1.031-.937-2.922 0-1.234.406-2.156.406-.922 1.235-1.375.843-.469 1.812-.469 1.25 0 2.031.625.782.625 1.016 1.766l-1.266.203q-.172-.765-.625-1.156-.453-.39-1.093-.39-.985 0-1.594.702-.61.704-.61 2.204 0 1.53.579 2.234.593.687 1.546.687.75 0 1.266-.453.516-.468.64-1.437zm7.328 1.844q-.719.609-1.375.859t-1.422.25q-1.25 0-1.922-.61-.672-.609-.672-1.562 0-.563.25-1.016.25-.468.656-.75.422-.28.938-.421.375-.094 1.14-.188 1.563-.188 2.297-.453.016-.266.016-.328 0-.797-.375-1.11-.484-.437-1.453-.437-.922 0-1.36.328-.421.313-.624 1.11l-1.266-.172q.172-.797.562-1.297.391-.5 1.141-.766t1.719-.266q.984 0 1.594.235.609.219.89.562.281.344.406.875.063.328.063 1.188v1.719q0 1.796.078 2.28.078.47.328.907h-1.344q-.203-.406-.265-.938zm-.11-2.875q-.703.28-2.093.484-.797.11-1.125.266-.328.14-.516.421-.172.266-.172.594 0 .516.39.86.391.343 1.141.343.735 0 1.313-.312.594-.328.86-.89.202-.438.202-1.298z"/>
        <path d="M128 208h96v48h-96z"/>
        <path stroke="#3c78d8" stroke-linecap="butt" stroke-linejoin="round" stroke-width="2" d="M128 208h96v48h-96z"/>
        <path fill="#3c78d8" d="M144.162 237.08v-10.484h7.594v1.234h-6.204v3.203h5.797v1.235h-5.797v3.578h6.438v1.234Zm14.541-2.781 1.266.156q-.203 1.313-1.063 2.063-.844.734-2.094.734-1.562 0-2.515-1.016-.938-1.031-.938-2.922 0-1.234.407-2.156.406-.922 1.234-1.375.844-.469 1.812-.469 1.25 0 2.032.625.78.625 1.015 1.766l-1.265.203q-.172-.765-.625-1.156-.453-.39-1.094-.39-.984 0-1.594.702-.61.704-.61 2.204 0 1.53.579 2.234.594.687 1.547.687.75 0 1.265-.453.516-.468.641-1.437zm1.89-1.016q0-2.11 1.173-3.125.984-.844 2.39-.844 1.578 0 2.563 1.032 1 1.015 1 2.828 0 1.469-.438 2.312-.437.828-1.281 1.297-.844.469-1.844.469-1.594 0-2.578-1.016-.984-1.031-.984-2.953zm1.329 0q0 1.453.625 2.188.64.718 1.61.718.968 0 1.593-.718.64-.735.64-2.235 0-1.406-.64-2.125-.64-.734-1.594-.734-.969 0-1.61.719-.624.718-.624 2.187zm7.307 3.797v-7.594h1.156v1.078q.844-1.25 2.422-1.25.688 0 1.266.25.578.235.86.641.28.406.406.953.062.36.062 1.25v4.672h-1.281v-4.625q0-.781-.156-1.172-.157-.39-.547-.625-.375-.234-.891-.234-.813 0-1.422.531-.594.516-.594 1.969v4.156Zm7.667-3.797q0-2.11 1.172-3.125.984-.844 2.39-.844 1.578 0 2.563 1.032 1 1.015 1 2.828 0 1.469-.438 2.312-.437.828-1.28 1.297-.845.469-1.845.469-1.593 0-2.578-1.016-.984-1.031-.984-2.953zm1.328 0q0 1.453.625 2.188.64.718 1.61.718.968 0 1.593-.718.64-.735.64-2.235 0-1.406-.64-2.125-.64-.734-1.594-.734-.968 0-1.609.719-.625.718-.625 2.187zm7.307 3.797v-7.594h1.157v1.063q.343-.563.937-.89.61-.345 1.36-.345.843 0 1.374.344.547.344.766.985.906-1.329 2.36-1.329 1.124 0 1.734.625.61.625.61 1.922v5.219h-1.282v-4.781q0-.781-.125-1.11-.125-.343-.453-.546-.328-.22-.781-.22-.797 0-1.329.532-.53.531-.53 1.703v4.422h-1.282v-4.938q0-.859-.313-1.28-.312-.438-1.03-.438-.548 0-1.016.297-.454.28-.672.828-.203.547-.203 1.594v3.937zm12.662 0v-7.594h1.281v7.594Zm-.062-8.547.953-2h1.687l-1.578 2zm8.634 7.61q-.719.609-1.375.859t-1.422.25q-1.25 0-1.922-.61-.671-.609-.671-1.562 0-.563.25-1.016.25-.468.656-.75.422-.28.937-.421.375-.094 1.141-.188 1.562-.188 2.297-.453.015-.266.015-.328 0-.797-.375-1.11-.484-.437-1.453-.437-.922 0-1.359.328-.422.313-.625 1.11l-1.266-.172q.172-.797.563-1.297.39-.5 1.14-.766.75-.266 1.72-.266.984 0 1.593.235.61.219.89.562.282.344.407.875.062.328.062 1.188v1.719q0 1.796.078 2.28.079.47.329.907h-1.344q-.203-.406-.266-.938zm-.11-2.875q-.702.28-2.093.484-.797.11-1.125.266-.328.14-.516.421-.171.266-.171.594 0 .516.39.86.39.343 1.14.343.735 0 1.313-.312.594-.328.86-.89.203-.438.203-1.298z"/>
        <path d="M128 272h96v48h-96z"/>
        <path stroke="#3c78d8" stroke-linecap="butt" stroke-linejoin="round" stroke-width="2" d="M128 272h96v48h-96z"/>
        <path fill="#3c78d8" d="m146.099 297.705 1.312-.11q.094.782.422 1.297.344.5 1.062.813.72.313 1.61.313.797 0 1.406-.235.61-.234.906-.64.297-.422.297-.907 0-.5-.297-.86-.281-.374-.937-.624-.422-.172-1.875-.516-1.438-.344-2.016-.656-.75-.39-1.125-.969-.36-.594-.36-1.312 0-.797.438-1.485.453-.687 1.313-1.047.875-.359 1.937-.359 1.172 0 2.063.375.89.375 1.36 1.11.484.734.515 1.656l-1.328.093q-.11-1-.735-1.5-.61-.515-1.812-.515-1.266 0-1.844.469-.578.468-.578 1.109 0 .562.422.937.39.36 2.078.75 1.703.375 2.328.657.922.422 1.36 1.078.437.64.437 1.484t-.484 1.594q-.485.734-1.391 1.14-.89.407-2.016.407-1.422 0-2.39-.406-.953-.422-1.5-1.25-.547-.829-.578-1.891zm9.603-.422q0-2.11 1.172-3.125.985-.844 2.39-.844 1.579 0 2.563 1.032 1 1.015 1 2.828 0 1.469-.437 2.312-.438.828-1.281 1.297-.844.469-1.844.469-1.594 0-2.578-1.016-.985-1.031-.985-2.953zm1.328 0q0 1.453.625 2.188.641.718 1.61.718.969 0 1.594-.718.64-.735.64-2.235 0-1.406-.64-2.125-.641-.734-1.594-.734-.969 0-1.61.719-.625.718-.625 2.187zm12.26 1.016 1.267.156q-.204 1.313-1.063 2.063-.844.734-2.094.734-1.562 0-2.515-1.016-.938-1.031-.938-2.922 0-1.234.406-2.156.407-.922 1.235-1.375.844-.469 1.812-.469 1.25 0 2.032.625.78.625 1.015 1.766l-1.265.203q-.172-.766-.625-1.156-.454-.39-1.094-.39-.985 0-1.594.702-.61.703-.61 2.203 0 1.532.579 2.235.594.687 1.547.687.75 0 1.265-.453.516-.469.64-1.437zm2.376-6.235v-1.468h1.297v1.468zm0 9.016v-7.594h1.297v7.594Zm8.46-2.453 1.327.172q-.312 1.172-1.172 1.812-.843.64-2.171.64-1.672 0-2.657-1.015-.968-1.031-.968-2.89 0-1.922.984-2.97 1-1.062 2.578-1.062 1.516 0 2.484 1.032.97 1.03.97 2.921 0 .11-.016.344h-5.657q.063 1.25.703 1.922.641.656 1.594.656.703 0 1.203-.359.5-.375.797-1.203zm-4.235-2.078h4.25q-.094-.953-.485-1.438-.625-.75-1.609-.75-.875 0-1.484.594-.61.594-.672 1.594zm12.104 4.531v-.953q-.719 1.125-2.125 1.125-.906 0-1.672-.5-.75-.5-1.172-1.39-.422-.907-.422-2.079 0-1.14.375-2.062.391-.922 1.141-1.407.766-.5 1.703-.5.688 0 1.219.297.531.281.875.735v-3.75h1.281v10.484Zm-4.062-3.797q0 1.469.609 2.188.625.718 1.453.718.844 0 1.438-.687.593-.688.593-2.11 0-1.562-.61-2.28-.593-.735-1.483-.735-.844 0-1.422.703t-.578 2.203zm12.244 2.86q-.718.609-1.375.859-.656.25-1.422.25-1.25 0-1.921-.61-.672-.609-.672-1.562 0-.563.25-1.016.25-.468.656-.75.422-.28.937-.422.375-.093 1.141-.187 1.563-.188 2.297-.453.016-.266.016-.328 0-.797-.375-1.11-.485-.437-1.454-.437-.921 0-1.359.328-.422.313-.625 1.11l-1.266-.173q.172-.796.563-1.296.39-.5 1.14-.766.75-.266 1.72-.266.984 0 1.593.235.61.219.89.562.282.344.407.875.062.328.062 1.188v1.719q0 1.796.079 2.28.078.47.328.907h-1.344q-.203-.406-.266-.938zm-.109-2.875q-.703.28-2.094.484-.797.11-1.125.265-.328.141-.515.422-.172.266-.172.594 0 .516.39.86.391.343 1.141.343.734 0 1.312-.312.594-.328.86-.89.203-.438.203-1.298zm8.23 3.812v-.953q-.72 1.125-2.126 1.125-.906 0-1.672-.5-.75-.5-1.172-1.39-.421-.907-.421-2.079 0-1.14.375-2.062.39-.922 1.14-1.407.766-.5 1.703-.5.688 0 1.22.297.53.281.874.735v-3.75h1.281v10.484Zm-4.063-3.797q0 1.469.61 2.188.624.718 1.452.718.844 0 1.438-.687.593-.688.593-2.11 0-1.562-.609-2.28-.594-.735-1.484-.735-.844 0-1.422.703t-.578 2.203z"/>
        <path d="M256 88h128v32H256Z"/>
        <path stroke="#3c78d8" stroke-linecap="butt" stroke-linejoin="round" d="M256 88h128v32H256Z"/>
        <path fill="#3c78d8" d="M272.53 108.52v-.922q-.734 1.063-1.984 1.063-.547 0-1.031-.204-.47-.218-.703-.53-.235-.329-.329-.798-.062-.297-.062-.984v-3.844h1.062v3.453q0 .813.063 1.11.094.406.406.656.328.234.813.234.468 0 .875-.234.422-.25.593-.672.188-.422.188-1.219v-3.328h1.047v6.219Zm2.565 0v-8.594h1.062v8.594Zm4.994-.938.156.922q-.453.094-.797.094-.578 0-.89-.172-.313-.187-.454-.484-.125-.297-.125-1.25v-3.578h-.765v-.813h.765v-1.547l1.047-.625v2.172h1.063v.813h-1.063v3.64q0 .453.047.578.063.125.188.204.125.078.36.078.187 0 .468-.032zm1.037-6.437v-1.219h1.062v1.219Zm0 7.375v-6.219h1.062v6.219Zm2.666 0v-6.219h.937v.875q.297-.469.782-.734.484-.281 1.11-.281.687 0 1.124.28.453.282.625.798.75-1.078 1.922-1.078.937 0 1.422.515.5.5.5 1.578v4.266h-1.047v-3.922q0-.625-.11-.906-.093-.281-.359-.453-.265-.172-.64-.172-.657 0-1.094.437-.422.438-.422 1.407v3.609h-1.063v-4.047q0-.703-.265-1.047-.25-.36-.828-.36-.453 0-.828.235-.375.235-.547.688-.172.453-.172 1.297v3.234Zm14.059-.766q-.594.5-1.141.703-.531.204-1.156.204-1.032 0-1.578-.5-.547-.5-.547-1.282 0-.453.203-.828.203-.39.547-.61.343-.234.765-.343.297-.094.938-.172 1.265-.14 1.875-.36v-.265q0-.656-.297-.922-.406-.343-1.203-.343-.735 0-1.094.265-.36.25-.531.906l-1.031-.14q.14-.656.468-1.063.328-.406.938-.625.61-.218 1.406-.218.797 0 1.297.187.5.188.734.469.235.281.328.719.047.265.047.968v1.407q0 1.468.063 1.859.078.39.281.75h-1.11q-.156-.328-.202-.766zm-.094-2.359q-.578.234-1.719.406-.656.094-.922.219-.265.11-.422.328-.14.219-.14.5 0 .422.312.703.328.281.938.281.61 0 1.078-.265.484-.266.703-.734.172-.36.172-1.047zm2.283 1.266 1.031-.157q.094.625.485.953.406.329 1.14.329.72 0 1.063-.282.36-.297.36-.703 0-.36-.313-.562-.219-.14-1.078-.36-1.157-.297-1.61-.5-.437-.218-.672-.593-.234-.375-.234-.844 0-.406.187-.766.188-.36.516-.594.25-.171.672-.296.422-.125.922-.125.719 0 1.265.218.563.203.829.563.265.36.359.953l-1.031.14q-.063-.468-.407-.734-.328-.281-.953-.281-.718 0-1.03.25-.313.234-.313.563 0 .203.125.359.14.172.406.281.156.063.937.266 1.125.312 1.563.5.437.187.687.547.25.359.25.906 0 .531-.312 1-.297.453-.875.719-.578.25-1.313.25-1.218 0-1.859-.5-.625-.516-.797-1.5zm6-.72v-1.062h3.25v1.063zm4.418 2.579v-6.219h.938v.875q.687-1.015 1.984-1.015.562 0 1.031.203.485.203.719.531.234.328.328.766.047.296.047 1.03v3.829h-1.047v-3.781q0-.657-.125-.969-.125-.313-.438-.5-.312-.203-.734-.203-.672 0-1.172.437-.484.422-.484 1.61v3.406Zm6.283-3.11q0-1.734.953-2.562.797-.687 1.953-.687 1.282 0 2.094.843.828.828.828 2.313 0 1.203-.359 1.89-.36.688-1.063 1.079-.687.375-1.5.375-1.296 0-2.109-.829-.797-.843-.797-2.421zm1.078 0q0 1.188.516 1.782.531.594 1.312.594.797 0 1.313-.594.516-.594.516-1.813 0-1.156-.532-1.75-.515-.593-1.297-.593-.78 0-1.312.593-.516.578-.516 1.782zm8.284 2.173.156.921q-.453.094-.797.094-.578 0-.89-.172-.313-.187-.454-.484-.125-.297-.125-1.25v-3.578h-.765v-.813h.765v-1.547l1.047-.625v2.172h1.063v.813h-1.063v3.64q0 .453.047.578.062.125.187.204.125.078.36.078.187 0 .469-.032zm1.037-6.438v-1.219h1.062v1.219Zm0 7.375v-6.219h1.062v6.219Zm6.728-2.281 1.031.14q-.171 1.063-.875 1.672-.703.61-1.718.61-1.282 0-2.063-.829-.765-.843-.765-2.406 0-1 .328-1.75.343-.765 1.015-1.14.688-.375 1.5-.375 1 0 1.64.515.657.5.845 1.453l-1.032.157q-.14-.625-.515-.938-.375-.328-.906-.328-.797 0-1.297.578-.5.563-.5 1.797 0 1.266.484 1.828.484.563 1.25.563.625 0 1.031-.375.422-.375.547-1.172zm1.938-5.094v-1.219h1.062v1.219Zm0 7.375v-6.219h1.062v6.219Zm6.728-.766q-.594.5-1.14.703-.532.204-1.157.204-1.03 0-1.578-.5-.547-.5-.547-1.282 0-.453.203-.828.204-.39.547-.61.344-.234.766-.343.297-.094.937-.172 1.266-.14 1.875-.36v-.265q0-.656-.296-.922-.407-.343-1.204-.343-.734 0-1.093.265-.36.25-.532.906l-1.03-.14q.14-.656.468-1.063.328-.406.937-.625.61-.218 1.407-.218t1.297.187q.5.188.734.469.234.281.328.719.047.265.047.968v1.407q0 1.468.062 1.859.079.39.282.75h-1.11q-.156-.328-.203-.766zm-.094-2.359q-.578.234-1.718.406-.657.094-.922.219-.266.11-.422.328-.14.219-.14.5 0 .422.312.703.328.281.937.281.61 0 1.078-.265.485-.266.704-.734.171-.36.171-1.047zm2.284 1.266 1.03-.157q.095.625.485.953.407.329 1.14.329.72 0 1.063-.282.36-.297.36-.703 0-.36-.313-.562-.218-.14-1.078-.36-1.156-.297-1.61-.5-.437-.218-.671-.593-.234-.375-.234-.844 0-.406.187-.766.188-.36.516-.594.25-.171.672-.296.421-.125.921-.125.72 0 1.266.218.563.203.828.563.266.36.36.953l-1.032.14q-.062-.468-.406-.734-.328-.281-.953-.281-.719 0-1.031.25-.313.234-.313.563 0 .203.125.359.14.172.406.281.157.063.938.266 1.125.312 1.562.5.438.187.688.547.25.359.25.906 0 .531-.313 1-.296.453-.875.719-.578.25-1.312.25-1.219 0-1.86-.5-.624-.516-.796-1.5zm6.718 1.859v-1.203h1.204v1.203Zm2.334 0 2.266-3.234-2.094-2.985h1.313l.953 1.453q.266.422.437.703.25-.39.47-.687l1.046-1.469h1.266l-2.157 2.922 2.313 3.297h-1.281l-1.282-1.938-.343-.515-1.641 2.453zm6.704 0v-6.219h.937v.875q.297-.469.781-.734.485-.281 1.11-.281.687 0 1.125.28.453.282.625.798.75-1.078 1.922-1.078.937 0 1.421.515.5.5.5 1.578v4.266h-1.046v-3.922q0-.625-.11-.906-.094-.281-.36-.453-.265-.172-.64-.172-.656 0-1.094.437-.421.438-.421 1.407v3.609h-1.063v-4.047q0-.703-.266-1.047-.25-.36-.828-.36-.453 0-.828.235-.375.235-.547.688-.172.453-.172 1.297v3.234Zm9.964 0v-8.594h1.063v8.594Z"/>
        <path d="M224 104h32"/>
        <path stroke="#3c78d8" stroke-linecap="butt" stroke-linejoin="round" d="M224 104h32"/>
        <path d="M256 152h128v32H256Z"/>
        <path stroke="#3c78d8" stroke-linecap="butt" stroke-linejoin="round" d="M256 152h128v32H256Z"/>
        <path fill="#3c78d8" d="M290.788 174.91v-8.609h.953v.797q.344-.469.766-.703.437-.234 1.047-.234.797 0 1.406.406.61.406.906 1.156.313.75.313 1.64 0 .954-.344 1.72-.328.765-.984 1.171-.657.407-1.375.407-.532 0-.954-.22-.421-.234-.687-.562v3.032zm.953-5.468q0 1.203.485 1.781.484.563 1.171.563.704 0 1.204-.594t.5-1.844q0-1.187-.485-1.766-.484-.593-1.172-.593-.672 0-1.187.625-.516.625-.516 1.828zm5.33-.031q0-1.735.953-2.563.797-.687 1.954-.687 1.28 0 2.093.843.828.829.828 2.313 0 1.203-.359 1.89-.36.688-1.062 1.079-.688.375-1.5.375-1.297 0-2.11-.828-.797-.844-.797-2.422zm1.078 0q0 1.187.516 1.78.531.595 1.313.595.796 0 1.312-.594t.516-1.813q0-1.156-.532-1.75-.515-.593-1.296-.593-.782 0-1.313.593-.516.579-.516 1.782zm5.956 3.109v-8.594h1.062v8.594zm3.056 0v-6.219h1.063v6.219zm-.047-7 .782-1.64h1.39l-1.297 1.64zm5.319 6.063.156.921q-.453.094-.797.094-.578 0-.89-.172-.313-.187-.454-.484-.125-.297-.125-1.25v-3.578h-.765v-.813h.765v-1.547l1.047-.625v2.172h1.063v.813h-1.063v3.64q0 .454.047.579.063.125.188.203.125.078.359.078.187 0 .469-.031zm1.037-6.438v-1.219h1.062v1.22zm0 7.375v-6.219h1.062v6.219zm6.728-2.281 1.031.14q-.171 1.063-.875 1.672-.703.61-1.718.61-1.282 0-2.063-.828-.765-.844-.765-2.407 0-1 .328-1.75.343-.765 1.015-1.14.688-.375 1.5-.375 1 0 1.641.515.656.5.844 1.453l-1.032.157q-.14-.625-.515-.938-.375-.328-.906-.328-.797 0-1.297.578-.5.563-.5 1.797 0 1.266.484 1.828.484.563 1.25.563.625 0 1.031-.375.422-.375.547-1.172zm6 1.515q-.594.5-1.14.704-.532.203-1.157.203-1.03 0-1.578-.5-.547-.5-.547-1.282 0-.453.203-.828.204-.39.547-.61.344-.233.766-.343.297-.094.937-.172 1.266-.14 1.875-.36v-.265q0-.656-.296-.922-.407-.343-1.204-.343-.734 0-1.093.265-.36.25-.532.907l-1.03-.141q.14-.656.468-1.063.328-.406.937-.625.61-.218 1.407-.218t1.297.187q.5.188.734.469.234.281.328.719.047.265.047.968v1.407q0 1.468.063 1.859.078.39.28.75h-1.109q-.156-.328-.203-.766zm-.093-2.359q-.579.234-1.72.406-.655.094-.921.22-.266.108-.422.327-.14.219-.14.5 0 .422.312.703.328.282.937.282.61 0 1.079-.266.484-.266.703-.734.172-.36.172-1.047zm3.001 3.125v-1.203h1.204v1.203Zm2.334 0 2.266-3.234-2.094-2.985h1.313l.953 1.453q.266.422.437.704.25-.391.47-.688l1.046-1.469h1.266l-2.157 2.922 2.313 3.297h-1.281l-1.282-1.937-.343-.516-1.64 2.453zm6.704 0v-6.219h.937v.875q.297-.468.781-.734.485-.281 1.11-.281.687 0 1.125.28.453.282.625.798.75-1.078 1.922-1.078.937 0 1.421.515.5.5.5 1.578v4.266h-1.046v-3.922q0-.625-.11-.906-.093-.281-.36-.453-.265-.172-.64-.172-.656 0-1.094.437-.421.438-.421 1.407v3.609h-1.063v-4.047q0-.703-.266-1.047-.25-.36-.828-.36-.453 0-.828.235-.375.235-.547.688-.172.453-.172 1.297v3.234Zm9.964 0v-8.594h1.063v8.594z"/>
        <path d="M256 216h128v32H256Z"/>
        <path stroke="#3c78d8" stroke-linecap="butt" stroke-linejoin="round" d="M256 216h128v32H256Z"/>
        <path fill="#3c78d8" d="m288.033 234.52 1.094.125q-.25.953-.953 1.484-.703.532-1.781.532-1.36 0-2.172-.844-.797-.844-.797-2.36 0-1.562.812-2.421.813-.875 2.094-.875 1.25 0 2.031.843.797.844.797 2.391v.281h-4.64q.062 1.032.578 1.578.515.532 1.297.532.578 0 .984-.297.422-.313.656-.969zm-3.453-1.703h3.469q-.063-.797-.39-1.188-.516-.609-1.313-.609-.735 0-1.235.484-.484.485-.53 1.313zm9.94 1.422 1.03.14q-.171 1.063-.874 1.672-.703.61-1.719.61-1.281 0-2.062-.828-.766-.844-.766-2.407 0-1 .328-1.75.344-.765 1.016-1.14.687-.375 1.5-.375 1 0 1.64.515.657.5.844 1.453l-1.031.157q-.14-.625-.516-.938-.375-.328-.906-.328-.797 0-1.297.578-.5.563-.5 1.797 0 1.266.484 1.828.485.563 1.25.563.625 0 1.032-.375.422-.375.547-1.172zm1.546-.828q0-1.735.954-2.563.796-.687 1.953-.687 1.28 0 2.093.843.829.829.829 2.313 0 1.203-.36 1.89-.36.688-1.062 1.079-.688.375-1.5.375-1.297 0-2.11-.828-.797-.844-.797-2.422zm1.079 0q0 1.187.515 1.78.531.595 1.313.595.797 0 1.312-.594.516-.594.516-1.813 0-1.156-.531-1.75-.516-.593-1.297-.593-.782 0-1.313.593-.515.579-.515 1.782zm5.986 3.109v-6.219h.937v.875q.688-1.015 1.985-1.015.562 0 1.031.203.484.203.719.531.234.328.328.766.047.297.047 1.03v3.829h-1.047v-3.781q0-.656-.125-.969-.125-.313-.438-.5-.312-.203-.734-.203-.672 0-1.172.437-.484.422-.484 1.61v3.406Zm6.283-3.11q0-1.734.953-2.562.797-.687 1.953-.687 1.282 0 2.094.843.828.829.828 2.313 0 1.203-.36 1.89-.359.688-1.062 1.079-.687.375-1.5.375-1.297 0-2.11-.828-.796-.844-.796-2.422zm1.078 0q0 1.188.516 1.782.531.594 1.312.594.797 0 1.313-.594.515-.594.515-1.813 0-1.156-.53-1.75-.516-.593-1.298-.593-.78 0-1.312.593-.516.579-.516 1.782zm5.987 3.11v-6.219h.937v.875q.297-.468.781-.734.485-.281 1.11-.281.687 0 1.125.28.453.282.625.798.75-1.078 1.922-1.078.937 0 1.421.515.5.5.5 1.578v4.266h-1.046v-3.922q0-.625-.11-.906-.094-.281-.36-.453-.265-.172-.64-.172-.656 0-1.094.437-.421.438-.421 1.407v3.609h-1.063v-4.047q0-.703-.266-1.047-.25-.36-.828-.36-.453 0-.828.235-.375.235-.547.688-.172.453-.172 1.297v3.234Zm9.996-7.375v-1.219h1.062v1.219zm0 7.375v-6.219h1.062v6.219Zm6.728-.766q-.594.5-1.14.704-.532.203-1.157.203-1.031 0-1.578-.5-.547-.5-.547-1.282 0-.453.203-.828.204-.39.547-.61.344-.233.766-.343.297-.094.937-.172 1.266-.14 1.875-.36v-.265q0-.656-.296-.922-.407-.343-1.204-.343-.734 0-1.093.265-.36.25-.532.907l-1.03-.141q.14-.656.468-1.063.328-.406.937-.625.61-.218 1.407-.218t1.297.187q.5.188.734.469.234.281.328.719.047.265.047.968v1.407q0 1.468.062 1.859.079.39.282.75h-1.11q-.156-.328-.203-.766zm-.094-2.359q-.578.234-1.718.406-.657.094-.922.219-.266.11-.422.328-.14.219-.14.5 0 .422.312.703.328.282.937.282.61 0 1.078-.266.485-.266.704-.734.171-.36.171-1.047zm3.002 3.125v-1.203h1.204v1.203Zm2.334 0 2.266-3.234-2.094-2.985h1.313l.953 1.453q.265.422.437.704.25-.391.47-.688l1.046-1.469h1.266l-2.157 2.922 2.313 3.297h-1.281l-1.282-1.938-.343-.515-1.641 2.453zm6.703 0v-6.219h.938v.875q.297-.468.781-.734.485-.281 1.11-.281.687 0 1.125.28.453.282.625.798.75-1.078 1.921-1.078.938 0 1.422.515.5.5.5 1.578v4.266h-1.047v-3.922q0-.625-.109-.906-.094-.281-.36-.453-.265-.172-.64-.172-.656 0-1.094.437-.422.438-.422 1.407v3.609h-1.062v-4.047q0-.703-.266-1.047-.25-.36-.828-.36-.453 0-.828.235-.375.235-.547.688-.172.453-.172 1.297v3.234Zm9.965 0v-8.594h1.063v8.594Z"/>
        <path d="M256 280h128v32H256Z"/>
        <path stroke="#3c78d8" stroke-linecap="butt" stroke-linejoin="round" d="M256 280h128v32H256Z"/>
        <path fill="#3c78d8" d="m285.36 298.66 1.03-.156q.094.625.485.953.406.329 1.14.329.72 0 1.063-.282.36-.297.36-.703 0-.36-.313-.562-.219-.14-1.078-.36-1.156-.297-1.61-.5-.437-.218-.671-.593-.235-.375-.235-.844 0-.406.188-.766.187-.36.515-.594.25-.171.672-.296.422-.125.922-.125.719 0 1.266.218.562.203.828.563.265.36.36.953l-1.032.14q-.063-.468-.406-.734-.328-.281-.953-.281-.72 0-1.032.25-.312.234-.312.562 0 .204.125.36.14.172.406.281.156.063.938.266 1.125.312 1.562.5.438.187.688.547.25.359.25.906 0 .531-.313 1-.297.453-.875.719-.578.25-1.312.25-1.22 0-1.86-.5-.625-.516-.797-1.5zm6.03-1.25q0-1.734.954-2.562.797-.687 1.953-.687 1.281 0 2.094.843.828.828.828 2.313 0 1.203-.36 1.89-.359.688-1.062 1.079-.688.375-1.5.375-1.297 0-2.11-.829-.796-.843-.796-2.421zm1.079 0q0 1.188.515 1.782.532.594 1.313.594.797 0 1.312-.594.516-.594.516-1.813 0-1.156-.531-1.75-.516-.593-1.297-.593-.781 0-1.313.593-.515.578-.515 1.782zm10.049.829 1.03.14q-.171 1.063-.874 1.672-.703.61-1.719.61-1.281 0-2.062-.829-.766-.843-.766-2.406 0-1 .328-1.75.344-.765 1.016-1.14.687-.375 1.5-.375 1 0 1.64.515.657.5.844 1.453l-1.031.157q-.14-.625-.516-.938-.375-.328-.906-.328-.797 0-1.297.578-.5.563-.5 1.797 0 1.266.484 1.828.485.563 1.25.563.625 0 1.032-.375.422-.375.547-1.172zm1.937-5.094v-1.219h1.063v1.219zm0 7.375v-6.219h1.063v6.219zm6.916-2 1.094.125q-.25.953-.953 1.484-.703.532-1.782.532-1.359 0-2.171-.844-.797-.844-.797-2.36 0-1.562.812-2.421.813-.875 2.094-.875 1.25 0 2.031.843.797.844.797 2.391v.281h-4.64q.062 1.031.578 1.578.515.532 1.296.532.579 0 .985-.297.422-.313.656-.969zm-3.453-1.703h3.469q-.063-.797-.39-1.188-.517-.609-1.313-.609-.735 0-1.235.484-.484.485-.531 1.313zm9.908 3.703v-.781q-.594.922-1.734.922-.75 0-1.375-.407-.625-.422-.969-1.156t-.344-1.687q0-.922.313-1.688.312-.766.937-1.156.625-.406 1.39-.406.563 0 1 .234.438.234.72.61v-3.079h1.047v8.594zm-3.328-3.11q0 1.204.5 1.797.5.579 1.188.579.687 0 1.171-.563.485-.562.485-1.719 0-1.28-.5-1.875-.485-.593-1.203-.593-.703 0-1.172.578-.469.562-.469 1.797zm10.033 2.344q-.593.5-1.14.703-.532.204-1.157.204-1.03 0-1.578-.5-.547-.5-.547-1.282 0-.453.204-.828.203-.39.546-.61.344-.234.766-.343.297-.094.938-.172 1.265-.14 1.875-.36v-.265q0-.656-.297-.922-.407-.343-1.203-.343-.735 0-1.094.265-.36.25-.531.906l-1.032-.14q.14-.656.469-1.063.328-.406.938-.625.609-.218 1.406-.218.797 0 1.297.187.5.188.734.469.234.281.328.719.047.265.047.968v1.407q0 1.468.063 1.859.078.39.28.75h-1.109q-.156-.328-.203-.766zm-.093-2.359q-.579.234-1.72.406-.655.094-.921.219-.266.11-.422.328-.14.219-.14.5 0 .422.312.703.328.281.937.281.61 0 1.079-.265.484-.266.703-.735.172-.359.172-1.046zm6.736 3.125v-.781q-.594.922-1.734.922-.75 0-1.375-.407-.625-.422-.97-1.156-.343-.734-.343-1.687 0-.922.313-1.688.312-.766.937-1.156.625-.406 1.39-.406.563 0 1 .234.438.234.72.61v-3.079h1.046v8.594zm-3.328-3.11q0 1.204.5 1.797.5.579 1.187.579.688 0 1.172-.563.485-.562.485-1.719 0-1.28-.5-1.875-.485-.593-1.204-.593-.703 0-1.171.578-.47.562-.47 1.797zm6.267 3.11v-1.203h1.203v1.203zm2.334 0 2.266-3.234-2.094-2.985h1.313l.953 1.453q.265.422.437.703.25-.39.47-.687l1.046-1.469h1.266l-2.157 2.922 2.313 3.297h-1.281l-1.282-1.938-.343-.515-1.641 2.453zm6.703 0v-6.219h.938v.875q.297-.469.781-.734.485-.281 1.11-.281.687 0 1.125.28.453.282.625.798.75-1.078 1.921-1.078.938 0 1.422.515.5.5.5 1.578v4.266h-1.047v-3.922q0-.625-.109-.906-.094-.281-.36-.453-.265-.172-.64-.172-.656 0-1.094.437-.422.438-.422 1.407v3.609h-1.062v-4.047q0-.703-.266-1.047-.25-.36-.828-.36-.453 0-.828.235-.375.235-.547.688-.172.453-.172 1.297v3.234zm9.965 0v-8.594h1.063v8.594z"/>
        <path d="M224 168h32"/>
        <path stroke="#3c78d8" stroke-linecap="butt" stroke-linejoin="round" d="M224 168h32"/>
        <path d="M224 232h32"/>
        <path stroke="#3c78d8" stroke-linecap="butt" stroke-linejoin="round" d="M224 232h32"/>
        <path d="M224 296h32"/>
        <path stroke="#3c78d8" stroke-linecap="butt" stroke-linejoin="round" d="M224 296h32"/>
        <path d="M64 48v56h64"/>
        <path stroke="#3c78d8" stroke-linecap="butt" stroke-linejoin="round" stroke-width="2" d="M64 48v56h64"/>
        <path d="M64 48v120h64"/>
        <path stroke="#3c78d8" stroke-linecap="butt" stroke-linejoin="round" stroke-width="2" d="M64 48v120h64"/>
        <path d="M64 48v184h64"/>
        <path stroke="#3c78d8" stroke-linecap="butt" stroke-linejoin="round" stroke-width="2" d="M64 48v184h64"/>
        <path d="M64 48v248h64"/>
        <path stroke="#3c78d8" stroke-linecap="butt" stroke-linejoin="round" stroke-width="2" d="M64 48v248h64"/>
        <path fill="#c9daf8" fill-rule="evenodd" d="M408 16h96v32h-96z"/>
        <path stroke="#3c78d8" stroke-linecap="butt" stroke-linejoin="round" stroke-width="2" d="M408 16h96v32h-96z"/>
        <path fill="#3c78d8" d="m442.086 34.233 1.766.453q-.563 2.172-2 3.328-1.438 1.14-3.531 1.14-2.157 0-3.516-.875-1.344-.89-2.063-2.547-.703-1.671-.703-3.593 0-2.078.797-3.625.797-1.563 2.266-2.36 1.484-.812 3.25-.812 2 0 3.36 1.016 1.374 1.015 1.905 2.875l-1.734.406q-.469-1.453-1.36-2.11-.874-.671-2.202-.671-1.547 0-2.579.734-1.03.734-1.453 1.984-.422 1.235-.422 2.563 0 1.703.5 2.968.5 1.266 1.547 1.907 1.047.625 2.266.625 1.484 0 2.516-.86 1.03-.859 1.39-2.547zm3.692 4.687V25.56h1.64v13.36Zm10.504-1.188q-.922.766-1.766 1.094-.828.313-1.796.313-1.594 0-2.454-.782-.859-.78-.859-1.984 0-.719.328-1.297.328-.593.844-.937.531-.36 1.187-.547.47-.125 1.454-.25 1.984-.234 2.921-.563.016-.343.016-.422 0-1-.469-1.421-.625-.547-1.875-.547-1.156 0-1.703.406-.547.406-.812 1.422l-1.61-.219q.219-1.015.719-1.64.5-.641 1.453-.985.953-.344 2.188-.344 1.25 0 2.015.297.782.282 1.14.735.376.437.517 1.109.078.422.078 1.516v2.187q0 2.281.109 2.89.11.595.406 1.157h-1.703q-.266-.516-.328-1.188zm-.14-3.671q-.891.375-2.672.625-1.016.14-1.438.328-.422.187-.656.531-.219.344-.219.781 0 .657.5 1.094.5.438 1.453.438.938 0 1.672-.407.75-.422 1.094-1.14.265-.563.265-1.641zm4.188 4.859v-9.672h1.468v1.469q.563-1.031 1.032-1.36.484-.328 1.062-.328.828 0 1.688.532l-.563 1.515q-.61-.36-1.203-.36-.547 0-.969.329-.422.328-.61.89-.28.876-.28 1.923v5.062Zm6.79 0v-9.672h1.641v9.672Zm-.078-10.875 1.22-2.547h2.155l-2.015 2.547Zm4.7 10.875v-9.672h1.468v1.375q1.063-1.594 3.078-1.594.875 0 1.61.313.734.312 1.093.828.375.5.516 1.203.094.453.094 1.594v5.953h-1.641v-5.89q0-1-.203-1.485-.188-.5-.672-.797-.484-.297-1.14-.297-1.048 0-1.813.672-.75.656-.75 2.516v5.281Z"/>
        <path d="M520 80h96v48h-96z"/>
        <path stroke="#3c78d8" stroke-linecap="butt" stroke-linejoin="round" stroke-width="2" d="M520 80h96v48h-96z"/>
        <path fill="#3c78d8" d="M538.127 109.08V98.596h1.39v9.25h5.157v1.234Zm7.557-3.797q0-2.11 1.172-3.125.984-.844 2.39-.844 1.579 0 2.563 1.032 1 1.015 1 2.828 0 1.468-.437 2.312-.438.828-1.282 1.297-.843.469-1.843.469-1.594 0-2.578-1.016-.985-1.031-.985-2.953zm1.328 0q0 1.453.625 2.188.641.718 1.61.718.968 0 1.593-.718.641-.735.641-2.235 0-1.406-.64-2.125-.641-.734-1.594-.734-.969 0-1.61.719-.625.718-.625 2.187zm18.426-6.687h1.391v6.046q0 1.594-.36 2.532-.359.922-1.296 1.5-.938.578-2.453.578-1.469 0-2.407-.5-.937-.516-1.343-1.469-.39-.969-.39-2.64v-6.047h1.39v6.046q0 1.376.25 2.016.25.64.86 1 .624.344 1.53.344 1.532 0 2.172-.688.656-.703.656-2.671zm-3.609-.657.953-2h1.688l-1.578 2zm7.116 11.141V98.596h1.28v10.484Zm6.1-1.156.187 1.14q-.547.11-.984.11-.688 0-1.078-.219-.391-.219-.547-.578-.157-.36-.157-1.516v-4.375h-.953v-1h.953v-1.89l1.282-.766v2.656h1.297v1h-1.297v4.438q0 .547.062.718.078.157.219.25.156.079.453.079.203 0 .563-.047zm1.259-7.86v-1.468h1.297v1.468zm0 9.016v-7.594h1.297v7.594Zm3.256 0v-7.594h1.156v1.063q.344-.563.938-.89.61-.345 1.36-.345.843 0 1.374.344.547.344.766.984.906-1.328 2.36-1.328 1.124 0 1.734.625.61.625.61 1.922v5.219h-1.282v-4.781q0-.782-.125-1.11-.125-.343-.453-.546-.328-.22-.782-.22-.796 0-1.328.532-.53.531-.53 1.703v4.422h-1.282v-4.938q0-.859-.313-1.28-.312-.438-1.03-.438-.548 0-1.017.297-.453.28-.671.828-.204.547-.204 1.593v3.938zm11.725-3.797q0-2.11 1.171-3.125.985-.844 2.391-.844 1.578 0 2.563 1.032 1 1.015 1 2.828 0 1.468-.438 2.312-.437.828-1.281 1.297-.844.469-1.844.469-1.594 0-2.578-1.016-.984-1.031-.984-2.953zm1.328 0q0 1.453.625 2.188.64.718 1.609.718t1.594-.718q.64-.735.64-2.235 0-1.406-.64-2.125-.64-.734-1.594-.734-.969 0-1.61.719-.624.718-.624 2.187z"/>
        <path d="M520 144h96v48h-96z"/>
        <path stroke="#3c78d8" stroke-linecap="butt" stroke-linejoin="round" stroke-width="2" d="M520 144h96v48h-96z"/>
        <path fill="#3c78d8" d="M545.094 173.08v-10.484h3.969q1.047 0 1.593.093.766.125 1.282.485.53.36.843 1.015.329.657.329 1.438 0 1.328-.86 2.265-.844.922-3.078.922h-2.687v4.266Zm1.39-5.5h2.72q1.343 0 1.906-.5.562-.5.562-1.406 0-.672-.328-1.14-.328-.47-.875-.61-.36-.094-1.297-.094h-2.687zm7.745 1.703q0-2.11 1.172-3.125.984-.844 2.39-.844 1.579 0 2.563 1.032 1 1.015 1 2.828 0 1.469-.438 2.312-.437.828-1.28 1.297-.845.469-1.845.469-1.593 0-2.578-1.016-.984-1.031-.984-2.953zm1.328 0q0 1.453.625 2.188.64.718 1.61.718.968 0 1.593-.718.64-.735.64-2.235 0-1.406-.64-2.125-.64-.734-1.594-.734-.968 0-1.609.719-.625.718-.625 2.187zm7.276 3.797v-10.484h1.281v10.484Zm3.74 0v-7.594h1.282v7.594Zm-.062-8.547.953-2h1.688l-1.578 2zm6.494 7.39.188 1.141q-.547.11-.985.11-.687 0-1.078-.219-.39-.219-.547-.578-.156-.36-.156-1.516v-4.375h-.953v-1h.953v-1.89l1.281-.766v2.656h1.297v1h-1.297v4.438q0 .547.063.719.078.156.218.25.157.078.454.078.203 0 .562-.047zm1.26-7.859v-1.468h1.296v1.468zm0 9.016v-7.594h1.296v7.594Zm8.209-2.781 1.265.156q-.203 1.313-1.062 2.063-.844.734-2.094.734-1.562 0-2.515-1.016-.938-1.031-.938-2.922 0-1.234.406-2.156.407-.922 1.235-1.375.843-.469 1.812-.469 1.25 0 2.031.625.782.625 1.016 1.766l-1.266.203q-.171-.765-.625-1.156-.453-.39-1.093-.39-.985 0-1.594.702-.61.704-.61 2.204 0 1.53.579 2.234.593.687 1.547.687.75 0 1.265-.453.516-.468.64-1.437zm7.328 1.844q-.719.609-1.375.859t-1.422.25q-1.25 0-1.922-.61-.672-.609-.672-1.562 0-.563.25-1.016.25-.468.657-.75.421-.28.937-.421.375-.094 1.14-.188 1.563-.188 2.298-.453.015-.266.015-.328 0-.797-.375-1.11-.484-.437-1.453-.437-.922 0-1.36.328-.421.313-.624 1.11l-1.266-.172q.172-.797.563-1.297.39-.5 1.14-.766.75-.266 1.719-.266.984 0 1.594.235.609.219.89.562.282.344.407.875.062.328.062 1.188v1.719q0 1.796.078 2.28.078.47.328.907h-1.344q-.203-.406-.265-.938zm-.11-2.875q-.703.28-2.093.484-.797.11-1.125.266-.328.14-.516.421-.172.266-.172.594 0 .516.39.86.392.343 1.142.343.734 0 1.312-.312.594-.328.86-.89.203-.438.203-1.298z"/>
        <path d="M520 208h96v48h-96z"/>
        <path stroke="#3c78d8" stroke-linecap="butt" stroke-linejoin="round" stroke-width="2" d="M520 208h96v48h-96z"/>
        <path fill="#3c78d8" d="M546.687 237.08v-10.484h2.078l2.485 7.422q.343 1.03.5 1.546.187-.562.562-1.671l2.516-7.297h1.86v10.484h-1.329v-8.781l-3.047 8.781h-1.265l-3.032-8.938v8.938zm17.068 0v-1.11q-.89 1.282-2.422 1.282-.671 0-1.25-.25-.578-.266-.875-.656-.28-.391-.39-.953-.078-.375-.078-1.204v-4.703h1.281v4.203q0 1.016.078 1.36.125.515.516.812.406.282.984.282t1.078-.297q.516-.297.719-.813.219-.515.219-1.484v-4.063h1.28v7.594Zm3.167 0v-7.594h1.156v1.078q.844-1.25 2.422-1.25.688 0 1.266.25.578.235.86.641.28.406.405.953.063.36.063 1.25v4.672h-1.281v-4.625q0-.781-.157-1.172-.156-.39-.547-.625-.375-.234-.89-.234-.813 0-1.422.531-.594.516-.594 1.969v4.156Zm13.073 0v-.953q-.719 1.125-2.125 1.125-.906 0-1.672-.5-.75-.5-1.172-1.39-.422-.907-.422-2.079 0-1.14.375-2.062.391-.922 1.141-1.407.766-.5 1.703-.5.688 0 1.219.297.531.282.875.735v-3.75h1.281v10.484Zm-4.063-3.797q0 1.469.61 2.188.625.718 1.453.718.844 0 1.437-.687.594-.688.594-2.11 0-1.562-.61-2.28-.593-.735-1.484-.735-.843 0-1.421.703-.579.703-.579 2.203zm6.808 0q0-2.11 1.172-3.125.984-.844 2.39-.844 1.578 0 2.563 1.032 1 1.015 1 2.828 0 1.469-.438 2.312-.437.828-1.28 1.297-.845.469-1.845.469-1.593 0-2.578-1.016-.984-1.031-.984-2.953zm1.328 0q0 1.453.625 2.188.64.718 1.61.718.968 0 1.593-.718.64-.735.64-2.235 0-1.406-.64-2.125-.64-.734-1.594-.734-.968 0-1.609.719-.625.718-.625 2.187z"/>
        <path d="M648 88h128v32H648Z"/>
        <path stroke="#3c78d8" stroke-linecap="butt" stroke-linejoin="round" d="M648 88h128v32H648Z"/>
        <path fill="#3c78d8" d="M679.095 108.52v-8.594h1.062v8.594Zm2.306-3.11q0-1.734.953-2.562.797-.687 1.954-.687 1.28 0 2.093.843.828.828.828 2.313 0 1.203-.359 1.89-.36.688-1.062 1.079-.688.375-1.5.375-1.297 0-2.11-.829-.797-.843-.797-2.421zm1.078 0q0 1.188.516 1.782.531.594 1.313.594.796 0 1.312-.594t.516-1.813q0-1.156-.532-1.75-.515-.593-1.296-.593-.782 0-1.313.593-.516.578-.516 1.782zm5.565.532v-1.063h3.25v1.063zm8.496 2.578v-.922q-.734 1.063-1.984 1.063-.547 0-1.032-.204-.468-.218-.703-.53-.234-.329-.328-.798-.062-.297-.062-.984v-3.844h1.062v3.453q0 .813.063 1.11.093.406.406.656.328.234.812.234.47 0 .875-.234.422-.25.594-.672.188-.422.188-1.219v-3.328h1.047v6.219Zm2.564 0v-8.594h1.063v8.594Zm4.995-.938.156.922q-.453.094-.797.094-.578 0-.89-.172-.313-.187-.454-.484-.125-.297-.125-1.25v-3.578h-.765v-.813h.765v-1.547l1.047-.625v2.172h1.063v.813h-1.063v3.64q0 .453.047.578.063.125.188.204.125.078.359.078.187 0 .469-.032zm1.037-6.437v-1.219h1.062v1.219Zm0 7.375v-6.219h1.062v6.219Zm2.666 0v-6.219h.937v.875q.297-.469.781-.734.485-.281 1.11-.281.687 0 1.125.28.453.282.625.798.75-1.078 1.922-1.078.937 0 1.422.515.5.5.5 1.578v4.266h-1.047v-3.922q0-.625-.11-.906-.093-.281-.359-.453t-.64-.172q-.657 0-1.094.437-.422.438-.422 1.407v3.609h-1.063v-4.047q0-.703-.265-1.047-.25-.36-.829-.36-.453 0-.828.235-.375.235-.547.688-.171.453-.171 1.297v3.234Zm9.605-3.11q0-1.734.953-2.562.797-.687 1.953-.687 1.282 0 2.094.843.828.828.828 2.313 0 1.203-.36 1.89-.358.688-1.062 1.079-.687.375-1.5.375-1.296 0-2.109-.829-.797-.843-.797-2.421zm1.078 0q0 1.188.516 1.782.531.594 1.312.594.797 0 1.313-.594.516-.594.516-1.813 0-1.156-.532-1.75-.515-.593-1.297-.593-.78 0-1.312.593-.516.578-.516 1.782zm6.284 3.11v-1.203h1.203v1.203Zm2.334 0 2.265-3.234-2.094-2.985h1.313l.953 1.453q.266.422.438.703.25-.39.468-.687l1.047-1.469h1.266l-2.156 2.922 2.312 3.297h-1.281l-1.281-1.938-.344-.515-1.64 2.453zm6.703 0v-6.219h.937v.875q.297-.469.781-.734.485-.281 1.11-.281.687 0 1.125.28.453.282.625.798.75-1.078 1.922-1.078.937 0 1.422.515.5.5.5 1.578v4.266h-1.047v-3.922q0-.625-.11-.906-.093-.281-.36-.453-.265-.172-.64-.172-.656 0-1.093.437-.422.438-.422 1.407v3.609h-1.063v-4.047q0-.703-.265-1.047-.25-.36-.829-.36-.453 0-.828.235-.375.235-.547.688-.171.453-.171 1.297v3.234Zm9.964 0v-8.594h1.063v8.594Z"/>
        <path d="M616 104h32"/>
        <path stroke="#3c78d8" stroke-linecap="butt" stroke-linejoin="round" d="M616 104h32"/>
        <path d="M648 152h128v32H648Z"/>
        <path stroke="#3c78d8" stroke-linecap="butt" stroke-linejoin="round" d="M648 152h128v32H648Z"/>
        <path fill="#3c78d8" d="M682.788 174.91v-8.609h.953v.797q.344-.469.766-.703.437-.234 1.047-.234.797 0 1.406.406.61.406.906 1.156.313.75.313 1.64 0 .954-.344 1.72-.328.765-.984 1.171-.657.407-1.375.407-.532 0-.954-.22-.421-.234-.687-.562v3.032zm.953-5.468q0 1.203.485 1.781.484.563 1.171.563.704 0 1.204-.594t.5-1.844q0-1.187-.485-1.766-.484-.593-1.172-.593-.672 0-1.187.625-.516.625-.516 1.828zm5.33-.031q0-1.735.953-2.563.797-.687 1.954-.687 1.28 0 2.093.843.828.829.828 2.313 0 1.203-.359 1.89-.36.688-1.062 1.079-.688.375-1.5.375-1.297 0-2.11-.828-.797-.844-.797-2.422zm1.078 0q0 1.187.516 1.78.531.595 1.313.595.796 0 1.312-.594t.516-1.813q0-1.156-.532-1.75-.515-.593-1.296-.593-.782 0-1.313.593-.516.579-.516 1.782zm5.956 3.109v-8.594h1.062v8.594zm3.056 0v-6.219h1.063v6.219zm-.047-7 .781-1.64h1.391l-1.297 1.64zm5.319 6.063.156.921q-.453.094-.797.094-.578 0-.89-.172-.313-.187-.454-.484-.125-.297-.125-1.25v-3.578h-.765v-.813h.765v-1.547l1.047-.625v2.172h1.063v.813h-1.063v3.64q0 .454.047.579.063.125.188.203.125.078.359.078.187 0 .469-.031zm1.037-6.438v-1.219h1.062v1.22zm0 7.375v-6.219h1.062v6.219zm6.728-2.281 1.031.14q-.171 1.063-.875 1.672-.703.61-1.718.61-1.282 0-2.063-.828-.765-.844-.765-2.407 0-1 .328-1.75.343-.765 1.015-1.14.688-.375 1.5-.375 1 0 1.641.515.656.5.844 1.453l-1.032.157q-.14-.625-.515-.938-.375-.328-.906-.328-.797 0-1.297.578-.5.563-.5 1.797 0 1.266.484 1.828.484.563 1.25.563.625 0 1.031-.375.422-.375.547-1.172zm6 1.515q-.594.5-1.14.704-.532.203-1.157.203-1.03 0-1.578-.5-.547-.5-.547-1.282 0-.453.203-.828.204-.39.547-.61.344-.233.766-.343.297-.094.937-.172 1.266-.14 1.875-.36v-.265q0-.656-.296-.922-.407-.343-1.204-.343-.734 0-1.093.265-.36.25-.532.907l-1.03-.141q.14-.656.468-1.063.328-.406.937-.625.61-.218 1.407-.218t1.297.187q.5.188.734.469.234.281.328.719.047.265.047.968v1.407q0 1.468.063 1.859.078.39.28.75h-1.109q-.156-.328-.203-.766zm-.093-2.359q-.579.234-1.72.406-.655.094-.921.22-.266.108-.422.327-.14.219-.14.5 0 .422.312.703.328.282.937.282.61 0 1.079-.266.484-.266.703-.734.172-.36.172-1.047zm3.001 3.125v-1.203h1.204v1.203Zm2.334 0 2.266-3.234-2.094-2.985h1.313l.953 1.453q.266.422.437.704.25-.391.47-.688l1.046-1.469h1.266l-2.157 2.922 2.313 3.297h-1.281l-1.282-1.937-.343-.516-1.64 2.453zm6.704 0v-6.219h.937v.875q.297-.468.781-.734.485-.281 1.11-.281.687 0 1.125.28.453.282.625.798.75-1.078 1.922-1.078.937 0 1.421.515.5.5.5 1.578v4.266h-1.046v-3.922q0-.625-.11-.906-.093-.281-.36-.453-.265-.172-.64-.172-.656 0-1.094.437-.421.438-.421 1.407v3.609h-1.063v-4.047q0-.703-.266-1.047-.25-.36-.828-.36-.453 0-.828.235-.375.235-.547.688-.172.453-.172 1.297v3.234Zm9.964 0v-8.594h1.063v8.594z"/>
        <path d="M648 216h128v32H648Z"/>
        <path stroke="#3c78d8" stroke-linecap="butt" stroke-linejoin="round" d="M648 216h128v32H648Z"/>
        <path fill="#3c78d8" d="M683.453 236.52v-6.219h.938v.875q.296-.468.78-.734.485-.281 1.11-.281.688 0 1.125.28.453.282.625.798.75-1.078 1.922-1.078.938 0 1.422.515.5.5.5 1.578v4.266h-1.047v-3.922q0-.625-.11-.906-.093-.281-.359-.453-.265-.172-.64-.172-.657 0-1.094.437-.422.438-.422 1.407v3.609h-1.062v-4.047q0-.703-.266-1.047-.25-.36-.828-.36-.453 0-.828.235-.375.235-.547.688-.172.453-.172 1.297v3.234Zm14.074 0v-.922q-.734 1.063-1.984 1.063-.547 0-1.031-.203-.47-.22-.703-.532-.235-.328-.329-.797-.062-.296-.062-.984v-3.844h1.062v3.453q0 .813.063 1.11.094.406.406.656.328.234.813.234.468 0 .875-.234.422-.25.593-.672.188-.422.188-1.219v-3.328h1.047v6.219Zm2.596 0v-6.219h.938v.875q.687-1.015 1.984-1.015.562 0 1.031.203.485.203.719.531.234.328.328.766.047.297.047 1.03v3.829h-1.047v-3.781q0-.656-.125-.969-.125-.313-.437-.5-.313-.203-.735-.203-.672 0-1.172.437-.484.422-.484 1.61v3.406Zm10.705 0v-.781q-.594.922-1.734.922-.75 0-1.375-.407-.625-.421-.969-1.156-.344-.734-.344-1.687 0-.922.313-1.688.312-.765.937-1.156.625-.406 1.39-.406.563 0 1 .234.438.234.72.61v-3.079h1.046v8.594Zm-3.328-3.11q0 1.204.5 1.798.5.578 1.187.578.688 0 1.172-.563.485-.562.485-1.719 0-1.28-.5-1.875-.485-.593-1.203-.593-.704 0-1.172.578-.469.562-.469 1.797zm5.58 0q0-1.734.953-2.562.797-.687 1.953-.687 1.282 0 2.094.843.828.829.828 2.313 0 1.203-.36 1.89-.359.688-1.062 1.079-.687.375-1.5.375-1.297 0-2.11-.828-.796-.844-.796-2.422zm1.078 0q0 1.188.516 1.782.531.594 1.312.594.797 0 1.313-.594.515-.594.515-1.813 0-1.156-.53-1.75-.516-.593-1.298-.593-.781 0-1.312.593-.516.579-.516 1.782zm6.283 3.11v-1.203h1.204v1.203Zm2.334 0 2.266-3.234-2.094-2.985h1.313l.953 1.453q.265.422.437.704.25-.391.47-.688l1.046-1.469h1.266l-2.157 2.922 2.313 3.297h-1.281l-1.282-1.938-.343-.515-1.641 2.453zm6.703 0v-6.219h.938v.875q.297-.468.781-.734.485-.281 1.11-.281.687 0 1.125.28.453.282.625.798.75-1.078 1.921-1.078.938 0 1.422.515.5.5.5 1.578v4.266h-1.047v-3.922q0-.625-.109-.906-.094-.281-.36-.453-.265-.172-.64-.172-.656 0-1.094.437-.422.438-.422 1.407v3.609h-1.062v-4.047q0-.703-.266-1.047-.25-.36-.828-.36-.453 0-.828.235-.375.235-.547.688-.172.453-.172 1.297v3.234Zm9.965 0v-8.594h1.063v8.594Z"/>
        <path d="M616 168h32"/>
        <path stroke="#3c78d8" stroke-linecap="butt" stroke-linejoin="round" d="M616 168h32"/>
        <path d="M616 232h32"/>
        <path stroke="#3c78d8" stroke-linecap="butt" stroke-linejoin="round" d="M616 232h32"/>
        <path d="M456 48v56h64"/>
        <path stroke="#3c78d8" stroke-linecap="butt" stroke-linejoin="round" stroke-width="2" d="M456 48v56h64"/>
        <path d="M456 48v120h64"/>
        <path stroke="#3c78d8" stroke-linecap="butt" stroke-linejoin="round" stroke-width="2" d="M456 48v120h64"/>
        <path d="M456 48v184h64"/>
        <path stroke="#3c78d8" stroke-linecap="butt" stroke-linejoin="round" stroke-width="2" d="M456 48v184h64"/>
    </g>
</svg>
